Coordinates
version=1
nRows=7
nColumns=42
inDegrees=yes

Units are S.I. units (second, meters, Newtons, ...)
If the header above contains a line with 'inDegrees', this indicates whether rotational values are in degrees (yes) or radians (no).

endheader
time	pelvis_tilt	pelvis_list	pelvis_rotation	pelvis_tx	pelvis_ty	pelvis_tz	hip_flexion_r	hip_adduction_r	hip_rotation_r	knee_angle_r	knee_adduction_r	knee_angle_r_beta	ankle_angle_r	subtalar_angle_r	mtp_angle_r	hip_flexion_l	hip_adduction_l	hip_rotation_l	knee_angle_l	knee_adduction_l	knee_angle_l_beta	ankle_angle_l	subtalar_angle_l	mtp_angle_l	lumbar_extension	lumbar_bending	lumbar_rotation	arm_flex_r	arm_add_r	arm_rot_r	elbow_flex_r	pro_sup_r	wrist_flex_r	wrist_dev_r	arm_flex_l	arm_add_l	arm_rot_l	elbow_flex_l	pro_sup_l	wrist_flex_l	wrist_dev_l
      0.71000000	     -2.73889265	     -3.98682429	     -6.18652295	     -0.76472516	      0.85855734	      0.18208713	    -13.10746373	     -1.52693183	      0.36694930	     10.77693014	     12.13539572	      0.18809291	     17.57556709	      5.12075008	     -7.76701940	     27.06910919	    -14.11046674	     -9.92828639	      8.50465051	     16.78599785	      0.14843415	     -1.13978395	     -5.67610427	     -7.76701940	    -10.06835542	      5.44158321	      7.57380855	      7.77757166	    -22.04601388	      3.17824222	     43.16464042	     90.00000001	      0.00000000	      0.00000000	    -12.56767496	     -5.53838543	     -1.84589832	     20.81492179	     90.00000001	      0.00000000	      0.00000000
      0.72000000	     -2.62492949	     -3.78870549	     -6.18894011	     -0.75248885	      0.85808454	      0.18117220	    -13.52782407	     -2.04347883	      0.73087723	     11.76948264	     12.26118809	      0.20541622	     17.14360048	      5.06733068	     -7.76248440	     27.07770739	    -13.83089687	     -9.38298004	      9.84660698	     16.93472804	      0.17185571	     -1.41876113	     -6.15538453	     -7.76248440	    -10.08121642	      5.04581507	      7.58313173	      7.43892825	    -22.00677174	      2.97710678	     43.11386871	     90.00000001	      0.00000000	      0.00000000	    -12.59129306	     -5.63677343	     -1.90046551	     20.91254530	     90.00000001	      0.00000000	      0.00000000
      0.73000000	     -2.60080117	     -3.52546176	     -6.18619287	     -0.74022974	      0.85779392	      0.18032004	    -13.64611732	     -2.56567783	      0.84915049	     13.16708377	     12.27573369	      0.22980896	     16.59763942	      5.03882645	     -7.74110198	     27.07248868	    -13.49761694	     -8.32935204	     10.95814268	     17.19474008	      0.19125567	     -2.75354222	     -8.44065745	     -7.74110198	     -9.96557297	      4.54795663	      7.59792782	      7.03101881	    -21.67393828	      1.91737523	     42.95119028	     90.00000001	      0.00000000	      0.00000000	    -12.45885491	     -5.76279203	     -2.12954813	     20.77385654	     90.00000001	      0.00000000	      0.00000000
      0.74000000	     -2.41547341	     -3.21652786	     -6.13403279	     -0.72776933	      0.85795679	      0.17929384	    -13.90508256	     -3.17008411	      1.05949509	     14.57724541	     12.37995605	      0.25442093	     15.63909767	      4.82778931	     -7.73602351	     26.90343087	    -13.12956833	     -7.88398980	     12.35463241	     17.42103091	      0.21562901	     -3.34079932	     -8.87575201	     -7.73602351	    -10.03136459	      3.99690714	      7.52923888	      6.61883414	    -21.56037466	      1.84998507	     42.78072484	     90.00000001	      0.00000000	      0.00000000	    -12.40517648	     -5.93627128	     -2.16672933	     20.90036674	     90.00000001	      0.00000000	      0.00000000
      0.75000000	     -2.33331485	     -2.90171988	     -6.05153283	     -0.71536617	      0.85835814	      0.17820952	    -13.84229231	     -3.73391690	      1.10125983	     16.37642826	     12.44916505	      0.28582259	     14.51499999	      4.51941620	     -7.72898761	     26.80159280	    -12.76036111	     -7.32869775	     13.67274520	     17.66810842	      0.23863442	     -4.18934984	     -9.58167784	     -7.72898761	     -9.98986877	      3.44742473	      7.43963234	      6.19986513	    -21.34730873	      1.53362769	     42.42114415	     90.00000001	      0.00000000	      0.00000000	    -12.25345263	     -6.10480405	     -2.21853676	     20.88250005	     90.00000001	      0.00000000	      0.00000000
      0.76000000	     -2.08533881	     -2.65322839	     -5.91022154	     -0.70280729	      0.85927583	      0.17715582	    -14.05923401	     -4.17562752	      1.76783385	     17.78899241	     12.62740084	      0.31047649	     13.73852970	      4.51264143	     -7.72662606	     26.37854105	    -12.45856896	     -6.44505459	     14.72219300	     18.07558478	      0.25695074	     -4.44169703	     -9.47311647	     -7.72662606	    -10.13532718	      2.93838987	      7.31867974	      5.70154620	    -21.15565889	      1.48431243	     42.21097228	     90.00000001	      0.00000000	      0.00000000	    -12.09432037	     -6.35351959	     -2.25222391	     21.00139960	     90.00000001	      0.00000000	      0.00000000
      0.77000000	     -1.97288183	     -2.24629967	     -5.78690359	     -0.69044936	      0.86033894	      0.17573128	    -13.47786211	     -4.91889126	      0.91167183	     20.71318777	     12.64013261	      0.36151333	     11.16726306	      3.70166873	     -7.72116488	     26.15606683	    -11.95995298	     -6.32662907	     16.04249663	     18.25062842	      0.27999439	     -4.79884747	    -10.24790461	     -7.72116488	    -10.13662181	      2.33921637	      7.20720285	      5.25710873	    -20.91833534	      1.03558386	     41.60608390	     90.00000001	      0.00000000	      0.00000000	    -11.79363826	     -6.48903282	     -2.29245558	     20.87795734	     90.00000001	      0.00000000	      0.00000000
